#!OML:ASF F:\VICON\USERDATA\INSTALL\Justin_Nancy\Justin_Nancy.ASF
:FULLY-SPECIFIED
:DEGREES
286
root -0.327628 17.3461 5.93442 -5.39253 -51.6136 8.32878
lowerback 6.81559 -1.42336 -5.77419
upperback 0.365992 -2.29255 1.60597
thorax -3.1523 -1.05257 5.13263
lowerneck -15.0561 -2.95476 -10.487
upperneck 22.5809 -2.69912 4.40432
head 9.87267 -1.71363 2.94121
rclavicle -1.78906e-014 -2.54444e-014
rhumerus -35.3114 -14.2022 -77.4386
rradius 30.9332
rwrist 4.98438
rhand -11.5286 14.7831
rfingers 7.12502
rthumb 14.5112 -14.6894
lclavicle -1.78906e-014 -2.54444e-014
lhumerus -24.0422 12.3523 85.2902
lradius 28.8044
lwrist -7.07751
lhand -19.5037 24.0711
lfingers 7.12502
lthumb 6.81894 53.9413
rfemur -31.8121 1.47085 16.9531
rtibia 39.0587
rfoot -6.76204 -6.31155
rtoes 1.85644
lfemur -2.31373 -1.02158 -30.6669
ltibia 23.0377
lfoot -16.3364 -7.41643
ltoes 15.3016
287
root -0.424316 17.3375 6.01928 -5.31142 -51.8353 8.34106
lowerback 6.79052 -1.34518 -5.95026
upperback 0.305453 -2.19821 1.70241
thorax -3.20344 -0.998982 5.32657
lowerneck -14.8741 -2.98972 -10.6236
upperneck 22.4751 -2.74993 4.47141
head 9.80841 -1.74093 2.9805
rclavicle -1.87852e-014 -1.19271e-014
rhumerus -35.6842 -12.5197 -77.8428
rradius 31.4667
rwrist 3.55018
rhand -11.5914 14.4187
rfingers 7.12502
rthumb 14.4507 -15.0581
lclavicle -1.87852e-014 -1.19271e-014
lhumerus -23.9861 12.4726 85.4923
lradius 29.0331
lwrist -7.2945
lhand -18.7653 24.6745
lfingers 7.12502
lthumb 7.53165 54.5204
rfemur -31.6033 1.79227 17.0461
rtibia 35.9557
rfoot -5.51897 -6.71306
rtoes 0.288824
lfemur -1.79869 -0.884251 -30.7148
ltibia 22.7227
lfoot -16.301 -7.41803
ltoes 17.0418
288
root -0.519883 17.3367 6.10682 -4.88445 -51.9153 7.83106
lowerback 6.94472 -1.28657 -5.76227
upperback 0.211454 -2.10947 1.89272
thorax -3.39945 -0.946869 5.42092
lowerneck -15.1703 -3.01656 -10.6963
upperneck 22.8962 -2.7512 4.49102
head 10.0168 -1.75392 3.00369
rclavicle -2.31584e-014 -2.38542e-015
rhumerus -36.0973 -10.7467 -78.2772
rradius 32.0098
rwrist 1.72492
rhand -11.9597 14.0354
rfingers 7.12502
rthumb 14.0959 -15.4665
lclavicle -2.31584e-014 -2.38542e-015
lhumerus -23.9634 12.2564 85.8082
lradius 29.2531
lwrist -7.2957
lhand -18.3572 24.5901
lfingers 7.12502
lthumb 7.92561 54.4215
rfemur -31.2041 1.8245 17.4516
rtibia 32.8782
rfoot -4.31115 -6.46544
rtoes -0.0869356
lfemur -1.0767 -0.761443 -30.4368
ltibia 22.2089
lfoot -16.2756 -7.36405
ltoes 18.2724
289
root -0.615977 17.3399 6.20126 -4.66344 -51.7492 7.58826
lowerback 6.97571 -1.37663 -5.57341
upperback 0.199472 -2.21552 1.91928
thorax -3.42084 -1.0015 5.35234
lowerneck -15.4417 -2.92751 -10.5494
upperneck 23.2132 -2.6165 4.39446
head 10.1669 -1.69587 2.96599
rclavicle -1.5207e-014 -3.18055e-015
rhumerus -35.4832 -13.958 -77.053
rradius 30.1877
rwrist 5.10658
rhand -11.9348 15.0161
rfingers 7.12502
rthumb 14.1199 -14.4841
lclavicle -1.5207e-014 -3.18055e-015
lhumerus -23.8296 11.6547 85.9698
lradius 29.5866
lwrist -6.57243
lhand -18.7836 24.8484
lfingers 7.12502
lthumb 7.51398 54.695
rfemur -30.7314 1.79799 17.5417
rtibia 29.8708
rfoot -3.26503 -6.07754
rtoes 1.96372
lfemur -0.285252 -1.0069 -30.3735
ltibia 21.5708
lfoot -16.0537 -7.32903
ltoes 19.3775
290
root -0.715621 17.346 6.29593 -4.78282 -51.6108 7.82711
lowerback 6.77978 -1.44222 -5.58218
upperback 0.277786 -2.29694 1.76307
thorax -3.22445 -1.05179 5.18994
lowerneck -15.5206 -2.89702 -10.3102
upperneck 23.2325 -2.60755 4.31626
head 10.1824 -1.67897 2.89923
rclavicle -2.55438e-014 -2.38542e-015
rhumerus -36.3356 -9.68299 -78.8049
rradius 32.2511
rwrist 0.730953
rhand -12.3989 13.2513
rfingers 7.12502
rthumb 13.6726 -16.2796
lclavicle -2.55438e-014 -2.38542e-015
lhumerus -23.5605 11.3829 85.9306
lradius 29.8925
lwrist -6.26542
lhand -19.0068 24.7317
lfingers 7.12502
lthumb 7.29859 54.5859
rfemur -30.2467 1.87737 17.2687
rtibia 26.9575
rfoot -2.28664 -5.75885
rtoes 3.18721
lfemur 0.603644 -0.713412 -30.6089
ltibia 20.8337
lfoot -16.2092 -7.23301
ltoes 17.1557
291
root -0.816684 17.3511 6.38014 -4.93382 -51.4931 8.23926
lowerback 6.55501 -1.44002 -5.82125
upperback 0.310094 -2.30338 1.61372
thorax -3.06083 -1.05887 5.15924
lowerneck -15.275 -2.95071 -10.4292
upperneck 22.9038 -2.7644 4.68929
head 10.0355 -1.71241 3.02838
rclavicle 6.26172e-014 -1.03368e-014
rhumerus -36.6331 -8.43764 -79.3741
rradius 32.8611
rwrist -0.758452
rhand -12.1576 12.9515
rfingers 7.12502
rthumb 13.9051 -16.5636
lclavicle 6.26172e-014 -1.03368e-014
lhumerus -23.2117 11.1887 85.9619
lradius 29.9736
lwrist -6.19964
lhand -19.128 24.5971
lfingers 7.12502
lthumb 7.18158 54.4553
rfemur -29.952 1.95028 16.9298
rtibia 24.2712
rfoot -1.38399 -5.20593
rtoes 3.76599
lfemur 1.41104 0.0114788 -30.846
ltibia 19.9347
lfoot -16.2419 -7.4832
ltoes 14.6595
292
root -0.924053 17.3462 6.47897 -4.88994 -51.6663 8.39507
lowerback 6.12584 -1.44685 -5.77195
upperback 0.358843 -2.28564 1.51585
thorax -2.77755 -1.06239 5.00893
lowerneck -14.9299 -2.89373 -10.614
upperneck 22.5025 -2.73165 4.96045
head 9.82953 -1.6764 3.15601
rclavicle -6.85807e-015 -1.11319e-014
rhumerus -36.2465 -9.28277 -79.2509
rradius 32.0919
rwrist 0.278933
rhand -11.8066 13.4785
rfingers 7.12502
rthumb 14.2434 -16.0131
lclavicle -6.85807e-015 -1.11319e-014
lhumerus -22.9924 11.0094 85.9902
lradius 30.051
lwrist -5.86675
lhand -19.0212 24.5643
lfingers 7.12502
lthumb 7.28472 54.4189
rfemur -29.7515 2.04942 16.8792
rtibia 21.8556
rfoot -0.667146 -4.35551
rtoes 3.86432
lfemur 2.30509 -0.134808 -31.0865
ltibia 18.9166
lfoot -16.0029 -7.07336
ltoes 14.0216
293
root -1.03169 17.3373 6.5713 -5.18681 -51.7915 8.81061
lowerback 5.90107 -1.44306 -5.97563
upperback 0.396151 -2.28197 1.45143
thorax -2.60803 -1.06536 5.0468
lowerneck -15.0583 -2.90996 -10.6441
upperneck 22.6392 -2.69811 4.80836
head 9.8994 -1.68267 3.11264
rclavicle 8.74653e-015 -7.95139e-016
rhumerus -36.0719 -9.57371 -79.1894
rradius 31.6328
rwrist 0.767091
rhand -12.3984 13.1702
rfingers 7.12502
rthumb 13.6731 -16.3606
lclavicle 8.74653e-015 -7.95139e-016
lhumerus -22.9985 11.063 86.0718
lradius 30.2686
lwrist -6.06027
lhand -18.6832 24.7034
lfingers 7.12502
lthumb 7.61091 54.5464
rfemur -29.3921 2.59072 16.4895
rtibia 19.5973
rfoot -0.277685 -4.22211
rtoes 2.28203
lfemur 3.31268 -0.0921421 -31.4524
ltibia 18.0117
lfoot -15.855 -6.723
ltoes 11.5128
294
root -1.13827 17.3333 6.66254 -5.43671 -51.6865 9.11977
lowerback 5.74783 -1.4278 -6.14174
upperback 0.486704 -2.26375 1.3557
thorax -2.42794 -1.0638 5.03122
lowerneck -15.3732 -2.99893 -10.3856
upperneck 22.9174 -2.80929 4.60109
head 10.0616 -1.73817 2.98318
rclavicle 4.46272e-014 -1.27222e-014
rhumerus -36.1011 -9.48068 -79.2606
rradius 31.5783
rwrist 0.882249
rhand -12.7595 12.6899
rfingers 7.12502
rthumb 13.325 -16.8641
lclavicle 4.46272e-014 -1.27222e-014
lhumerus -22.8627 11.2616 86.15
lradius 30.4726
lwrist -6.40095
lhand -18.8652 24.4224
lfingers 7.12502
lthumb 7.43522 54.2718
rfemur -28.8999 2.86933 16.1413
rtibia 17.4992
rfoot -0.230006 -3.78861
rtoes 0.0506958
lfemur 4.2388 -0.114739 -31.6756
ltibia 17.2007
lfoot -15.5969 -7.00032
ltoes 10.3293
